<svg width="16" height="16" fill="none" xmlns="http://www.w3.org/2000/svg"><path fill-rule="evenodd" clip-rule="evenodd" d="M8.366 9.153h1.142a.495.495 0 000-.993H8.366V7.007a.49.49 0 00-.488-.494.495.495 0 00-.495.494V8.16H6.247a.497.497 0 000 .993h1.136v1.154c0 .273.224.493.495.493a.49.49 0 00.488-.493V9.153zm4.526-3.136c.155-.002.324-.004.477-.004.165 0 .297.134.297.3v5.36c0 1.654-1.326 2.994-2.97 2.994H5.449c-1.717 0-3.116-1.407-3.116-3.14V4.34c0-1.653 1.333-3.007 2.977-3.007h3.525c.171 0 .303.14.303.307v2.147c0 1.22.997 2.22 2.205 2.226.282 0 .53.002.748.004l.453.003.348-.003zm.181-.973c-.543.002-1.182 0-1.642-.005-.73 0-1.332-.607-1.332-1.344V1.937c0-.287.346-.43.543-.222l1.337 1.404 1.32 1.387a.318.318 0 01-.226.538z" fill="#3455C3"/></svg>