<svg width="34" height="34" fill="none" xmlns="http://www.w3.org/2000/svg"><path d="M23.206 8.749l.55 3.483 3.168 1.615-1.597 3.158 1.606 3.157-3.194 1.615-.55 3.483-3.51-.55-2.5 2.49-2.508-2.526-3.483.577-.56-3.51-3.148-1.606 1.606-3.158-1.597-3.13 3.167-1.633.55-3.456 3.492.577L17.206 6.8l2.5 2.5 3.5-.551zm-8.255 3.744a1.353 1.353 0 100 2.707 1.353 1.353 0 000-2.707zm4.51 6.316a1.354 1.354 0 10.001 2.707 1.354 1.354 0 000-2.707zm-5.494 2.707l7.75-7.75-1.272-1.273-7.75 7.75 1.272 1.273z" fill="url(#paint0_linear_31_2121)"/><defs><linearGradient id="paint0_linear_31_2121" x1="10.529" y1="9.1" x2="22.796" y2="25.108" gradientUnits="userSpaceOnUse"><stop stop-color="#3455C3"/><stop offset="1" stop-color="#4384E6"/></linearGradient></defs></svg>