<svg width="34" height="34" fill="none" xmlns="http://www.w3.org/2000/svg"><path d="M16 15.04a.963.963 0 00-.96.96c0 .528.432.96.96.96s.96-.432.96-.96a.963.963 0 00-.96-.96zm.48-8.64c4.32 0 4.425 3.427 2.16 4.56-.95.47-1.373 1.478-1.555 2.371.46.192.864.49 1.17.874 3.553-1.92 7.374-1.162 7.374 2.275 0 4.32-3.428 4.416-4.56 2.14-.48-.95-1.498-1.372-2.39-1.554-.193.46-.49.854-.874 1.18 1.91 3.543 1.152 7.354-2.285 7.354-4.32 0-4.406-3.437-2.14-4.57.94-.47 1.362-1.468 1.554-2.352a2.96 2.96 0 01-1.19-.883C10.2 19.696 6.4 18.947 6.4 15.52c0-4.32 3.418-4.426 4.55-2.15.48.95 1.488 1.363 2.381 1.545.183-.46.49-.864.883-1.171-1.91-3.542-1.152-7.344 2.266-7.344z" fill="url(#paint0_linear_31_2113)"/><defs><linearGradient id="paint0_linear_31_2113" x1="9.414" y1="8.565" x2="20.8" y2="24.171" gradientUnits="userSpaceOnUse"><stop stop-color="#3455C3"/><stop offset="1" stop-color="#4384E6"/></linearGradient></defs></svg>