<svg width="34" height="34" fill="none" xmlns="http://www.w3.org/2000/svg"><path d="M17.064 20.57a3.57 3.57 0 110-7.14 3.57 3.57 0 010 7.14zm7.579-2.58c.04-.327.071-.653.071-.99 0-.337-.03-.673-.071-1.02l2.152-1.663a.515.515 0 00.122-.652l-2.04-3.53a.5.5 0 00-.622-.224l-2.54 1.02c-.53-.398-1.08-.745-1.724-1l-.377-2.703a.516.516 0 00-.51-.428h-4.08a.516.516 0 00-.51.428l-.377 2.703c-.643.255-1.194.602-1.724 1l-2.54-1.02a.501.501 0 00-.622.224l-2.04 3.53a.503.503 0 00.122.652l2.152 1.663a8.89 8.89 0 00-.07 1.02c0 .337.03.663.07.99l-2.152 1.693a.503.503 0 00-.122.652l2.04 3.53a.513.513 0 00.622.224l2.54-1.03c.53.408 1.081.755 1.724 1.01l.377 2.703c.04.244.255.428.51.428h4.08c.255 0 .47-.184.51-.428l.377-2.703a7.427 7.427 0 001.724-1.01l2.54 1.03c.225.082.5 0 .622-.224l2.04-3.53a.515.515 0 00-.122-.652l-2.152-1.694z" fill="url(#paint0_linear_31_2117)"/><defs><linearGradient id="paint0_linear_31_2117" x1="10.25" y1="9.1" x2="22.452" y2="25.343" gradientUnits="userSpaceOnUse"><stop stop-color="#3455C3"/><stop offset="1" stop-color="#4384E6"/></linearGradient></defs></svg>