<svg width="34" height="34" fill="none" xmlns="http://www.w3.org/2000/svg"><path d="M25.16 27.2l-3.937-1.581a21.17 21.17 0 001.54-4.814L25.16 27.2zm-12.383-1.581L8.84 27.2l2.397-6.395a21.17 21.17 0 001.54 4.814zM17 6.8s5.1 2.04 5.1 10.2c0 3.162-.765 5.865-1.704 7.987a2.04 2.04 0 01-1.866 1.193h-3.06a2.04 2.04 0 01-1.867-1.193C12.675 22.865 11.9 20.162 11.9 17 11.9 8.84 17 6.8 17 6.8zM17 17c1.122 0 2.04-.918 2.04-2.04 0-1.122-.918-2.04-2.04-2.04-1.122 0-2.04.918-2.04 2.04 0 1.122.918 2.04 2.04 2.04z" fill="url(#paint0_linear_31_1941)"/><defs><linearGradient id="paint0_linear_31_1941" x1="11.398" y1="9.1" x2="24.05" y2="22.952" gradientUnits="userSpaceOnUse"><stop stop-color="#3455C3"/><stop offset="1" stop-color="#4384E6"/></linearGradient></defs></svg>