<svg version="1.0" xmlns="http://www.w3.org/2000/svg" width="682.667" height="682.667" viewBox="0 0 512 512"><g fill="#3455c3"><path d="M135.9 27.3c-5.1 2.7-10.4 9.1-11.9 14.5-.5 2.1-1 14.8-1 29.4v25.7l2.4 2.8 2.4 2.8h256.4l2.4-2.9 2.5-2.8-.3-27.8-.3-27.7-3-4.9c-1.7-2.6-5-6.2-7.4-7.9l-4.3-3-116.7-.3-116.7-.2-4.5 2.3zm70 26.3c2.7 3.5 2.6 6.6-.2 10-2 2.3-3.2 2.7-7.2 2.7s-5.2-.4-7.2-2.7c-2.8-3.4-2.9-6.5-.2-10 1.8-2.2 2.8-2.6 7.4-2.6 4.6 0 5.6.4 7.4 2.6zm115 0c2.7 3.5 2.6 6.6-.2 10-2 2.3-3.2 2.7-7.2 2.7s-5.2-.4-7.2-2.7c-2.8-3.4-2.9-6.5-.2-10 1.8-2.2 2.8-2.6 7.4-2.6 4.6 0 5.6.4 7.4 2.6zm-45.7 7.1c1.5 1.3 1.8 3.2 1.8 10.8 0 13.2.3 13-21 13s-21 .2-21-12.8c0-13.1-.7-12.7 20.8-12.7 14.9 0 17.8.2 19.4 1.7zm-69.3 18.9c2.7 3.5 2.6 6.6-.2 10-2 2.3-3.2 2.7-7.2 2.7s-5.2-.4-7.2-2.7c-2.8-3.4-2.9-6.5-.2-10 1.8-2.2 2.8-2.6 7.4-2.6 4.6 0 5.6.4 7.4 2.6zm115 0c2.7 3.5 2.6 6.6-.2 10-2 2.3-3.2 2.7-7.2 2.7s-5.2-.4-7.2-2.7c-2.8-3.4-2.9-6.5-.2-10 1.8-2.2 2.8-2.6 7.4-2.6 4.6 0 5.6.4 7.4 2.6zm-243.7 42c-5.5 3.8-5.2-7.5-5.2 182.1 0 171.3 0 174.9 2 178 1 1.7 2.9 3.8 4.2 4.5 3.4 1.9 352.2 1.9 355.6 0 1.3-.7 3.2-2.8 4.2-4.5 2-3.1 2-6.7 2-178 0-189.6.3-178.3-5.2-182.1-2-1.4-20.4-1.6-178.8-1.6s-176.8.2-178.8 1.6zm199.3 36.5c26.5 3.4 57.1 17.2 74.2 33.2l3.3 3.1 8.9-8.7c9.6-9.4 11.8-10.3 16.5-6.6 2 1.5 2.6 2.9 2.6 5.7 0 3.3-.9 4.6-8 11.7-4.4 4.4-8 8.3-8 8.8s2 3.2 4.4 6c5.5 6.6 12.3 17.1 17.1 26.7 24.6 49 19.3 109.2-13.3 152.5-3.7 4.8-7.1 9.4-7.7 10.1-.7 1 1.1 3.5 7.3 9.7 7.3 7.3 8.2 8.7 8.2 11.9 0 2.8-.6 4.2-2.6 5.7-4.7 3.7-6.9 2.8-16.5-6.5l-8.8-8.7-4.2 3.7c-11.7 10.7-34.8 23-52.7 28.2-26 7.5-55.8 7.5-82.4-.1-19.3-5.5-41.4-17.4-53.5-28.8l-3.3-3.1-8.9 8.7c-9.6 9.4-11.8 10.3-16.5 6.6-2-1.5-2.6-2.9-2.6-5.7 0-3.3.9-4.6 8-11.7 4.4-4.4 8-8.3 8-8.8s-2-3.2-4.4-6c-13.8-16.4-25.5-41.4-30.3-65.4-2.7-13.4-2.4-42.3.5-56 5-23.2 16.3-47 29.8-63 2.4-2.8 4.4-5.5 4.4-6s-3.6-4.4-8-8.8c-7.1-7.1-8-8.4-8-11.7 0-2.8.6-4.2 2.6-5.7 4.7-3.7 6.9-2.8 16.5 6.5l8.8 8.7 4.6-4.1c6.9-6.1 18.9-13.8 29.2-18.8 26.3-12.7 54.9-17.2 84.8-13.3z"/><path d="M245 173.2c-24 1.6-48.8 11.2-68.8 26.5l-7.4 5.6 16.4 16.4c8.9 8.9 16.6 16.3 17.1 16.3.4 0 3.5-1.8 6.8-4.1 27.8-18.8 66-18.9 93.7 0 3.4 2.2 6.5 4.1 6.9 4.1.5 0 8.2-7.4 17.2-16.4l16.3-16.3-8.6-6.5c-25.8-19.3-55.7-27.9-89.6-25.6zm-93.9 52c-29.8 39.9-34.3 93.3-11.5 137.8 4.8 9.3 16.1 26.1 18.2 26.8.4.1 8.1-7.2 17.1-16.2l16.4-16.4-3.7-5c-9.2-12.6-15.6-32.4-15.6-48.7 0-16.2 6.3-35.8 15.6-48.8l3.6-5-16.3-16.3c-9-9-16.6-16.4-17-16.4-.3 0-3.4 3.7-6.8 8.2zm186 8.2l-16.4 16.4 3.7 5c4.7 6.5 10.9 19.8 13.2 28.7 2.6 9.7 2.6 30.3 0 40-2.3 8.9-8.5 22.2-13.2 28.7l-3.7 5 16.4 16.4c9 9 16.7 16.3 17.1 16.2 2-.7 13.3-17.2 17.8-26 19.7-38.2 19.9-81.8.4-119.8-4.8-9.3-16.1-26.1-18.2-26.8-.4-.1-8.1 7.2-17.1 16.2z"/><path d="M238.3 237.9c-7.2 2.1-17.5 7-21.6 10.3l-2.8 2.3 21.1 21 21 21 21-21c23.8-23.8 23-21.6 11.2-27.9-10.6-5.5-19.8-7.6-32.7-7.5-7.4 0-13.1.6-17.2 1.8zm-38.1 26.8c-3.2 4.6-7.9 14.5-9.8 20.9-2.5 8.2-2.5 27.6 0 35.8 2 6.9 7.4 17.9 10.4 21.6l2.1 2.5 20.5-20.5c11.4-11.3 20.6-20.9 20.6-21.5 0-1.1-40.1-41.5-41.2-41.5-.4 0-1.5 1.2-2.6 2.7zm88 17.6C277.1 293.4 268 303 268 303.5c0 .6 9.2 10.2 20.6 21.5l20.5 20.5 2.1-2.5c3.9-4.6 9.8-18.4 11.3-26.3 1.9-9.9 1.9-16.5 0-26.3-1.9-10-10.5-28.4-13.3-28.4-.4 0-9.8 9.1-21 20.3zm-53.6 53.6l-20.8 20.8 4.6 3.2c11 7.6 23 11.1 37.8 11.1 12.3 0 22-2.3 31.8-7.7 11.9-6.4 12.9-3.9-10.7-27.5-11.4-11.4-21-20.8-21.3-20.8-.3 0-9.9 9.4-21.4 20.9z"/><path d="M185.1 385.4l-16.3 16.3 8.6 6.5c16.1 12.1 36.3 20.8 56.1 24.3 11.7 2 33.3 2 45 0 19.8-3.5 40-12.2 56.1-24.3l8.6-6.5-16.3-16.3c-9-9-16.7-16.4-17.2-16.4-.4 0-3.5 1.9-6.9 4.1-27.7 18.9-65.9 18.8-93.7 0-3.3-2.3-6.4-4.1-6.8-4.1-.5 0-8.2 7.4-17.2 16.4zM18.5 149.8c-6.8 3.3-12.7 9.2-15.9 16.1l-2.1 4.6v266l2.2 4.7c3.2 7 9.4 13.1 16.5 16.3 5.5 2.5 7.5 2.8 17.1 2.9 10.7.1 10.9.1 13.3-2.7l2.4-2.8V152.3l-2.1-2.7c-2-2.5-2.3-2.6-13.7-2.6-10.8 0-12.2.2-17.7 2.8zm443.6-.2l-2.1 2.7v302.6l2.3 2.6c1.7 2 3.4 2.7 7.7 3.2 7.5.7 19-1.1 24.5-3.8 5.7-2.8 12-9.5 14.8-15.7l2.2-4.7v-266l-2.2-4.7c-2.9-6.2-9.1-12.8-15-15.8-4.2-2.2-6.4-2.5-17.4-2.8l-12.6-.4-2.2 2.8z"/></g></svg>