<svg viewBox="0 0 64 64" xmlns="http://www.w3.org/2000/svg"><path d="M16.47 60H47.1a4.9 4.9 0 004.9-4.9V16.9a4.9 4.9 0 00-4.9-4.9H13a5 5 0 00-5 5v34.53A8.47 8.47 0 0016.47 60zm3.43-28.91l3.86-.56A2.74 2.74 0 0025.81 29l1.73-3.5a2.74 2.74 0 014.92 0l1.73 3.5a2.74 2.74 0 002.06 1.5l3.86.56a2.74 2.74 0 011.52 4.68l-2.79 2.72a2.74 2.74 0 00-.84 2.45l.66 3.84a2.74 2.74 0 01-4 2.89l-3.45-1.81a2.74 2.74 0 00-2.55 0l-3.45 1.81a2.74 2.74 0 01-4-2.89l.79-3.84a2.74 2.74 0 00-.79-2.43l-2.79-2.72a2.74 2.74 0 011.47-4.67zM45 4.4L16.27 7.31a.35.35 0 000 .69h30.79a.94.94 0 00.94-.94 2.68 2.68 0 00-3-2.66z" fill="gold" data-name="Layer 2"/></svg>