<svg width="35" height="34" fill="none" xmlns="http://www.w3.org/2000/svg"><path fill-rule="evenodd" clip-rule="evenodd" d="M20.95 15.914h3.922c.594 0 1.061-.492 1.061-1.085 0-.607-.467-1.084-1.061-1.084H20.95c-.595 0-1.062.477-1.062 1.084 0 .593.467 1.085 1.062 1.085zm8.579-7.517c.863 0 1.43.304 1.996.969.566.665.665 1.62.538 2.485l-1.345 9.484c-.255 1.823-1.784 3.166-3.581 3.166H11.693c-1.883 0-3.44-1.473-3.596-3.381L6.795 5.36l-2.138-.376a1.087 1.087 0 01-.863-1.243 1.083 1.083 0 011.231-.895l3.377.519c.48.088.835.491.877.983l.27 3.238a.87.87 0 00.863.811h19.117zm-18.063 18.39c-1.19 0-2.152.982-2.152 2.197 0 1.2.963 2.183 2.152 2.183 1.175 0 2.138-.983 2.138-2.183 0-1.215-.963-2.198-2.138-2.198zm15.925 0c-1.189 0-2.152.982-2.152 2.197 0 1.2.963 2.183 2.152 2.183 1.175 0 2.138-.983 2.138-2.183 0-1.215-.963-2.198-2.138-2.198z" fill="#fff"/></svg>