<svg width="40" height="40" fill="none" xmlns="http://www.w3.org/2000/svg"><path d="M28.68 0H11.34C4.56 0 0 4.76 0 11.84v16.342C0 35.242 4.56 40 11.34 40h17.34C35.46 40 40 35.242 40 28.182V11.84C40 4.76 35.46 0 28.68 0z" fill="#3455C3"/><path d="M26.02 23.542c.68.68.68 1.78 0 2.458-.34.34-.78.522-1.24.522-.44 0-.88-.16-1.22-.522L20 22.462 16.44 26c-.34.34-.78.522-1.24.522a1.76 1.76 0 01-1.24-3l3.56-3.54-3.56-3.562a1.76 1.76 0 010-2.478 1.759 1.759 0 012.48 0L20 17.5l3.54-3.558c.7-.682 1.8-.682 2.48 0 .68.68.68 1.8 0 2.478l-3.56 3.562 3.56 3.56z" fill="#fff"/></svg>