<svg width="13" height="10" fill="none" xmlns="http://www.w3.org/2000/svg"><path d="M6.4 3.5a1.5 1.5 0 100 3 1.5 1.5 0 000-3z" fill="#222B45"/><path fill-rule="evenodd" clip-rule="evenodd" d="M6.4.667c-1.745 0-3.315.7-4.446 1.569A6.41 6.41 0 00.598 3.623C.278 4.083.067 4.568.067 5c0 .432.21.917.53 1.378.327.47.791.952 1.357 1.387 1.131.867 2.7 1.568 4.446 1.568 1.745 0 3.315-.7 4.445-1.568a6.41 6.41 0 001.357-1.387c.32-.461.531-.946.531-1.378 0-.432-.211-.917-.53-1.377a6.41 6.41 0 00-1.357-1.387C9.714 1.368 8.145.666 6.4.666zM3.9 5a2.5 2.5 0 115 0 2.5 2.5 0 01-5 0z" fill="#222B45"/></svg>