<svg width="16" height="16" xmlns="http://www.w3.org/2000/svg"><path fill-rule="evenodd" clip-rule="evenodd" d="M15.769 7.763C11.039 1.44 5.04 1.385.203 7.763c-.27.378-.27.919 0 1.243 4.783 6.378 10.783 6.432 15.566 0 .324-.324.292-.853 0-1.243zm-4.243.649a3.506 3.506 0 00-3.513-3.514A3.506 3.506 0 004.5 8.412c0 1.891 1.567 3.459 3.513 3.459s3.513-1.568 3.513-3.46zm-1.676 0c0-1.027-.81-1.838-1.837-1.838s-1.838.81-1.838 1.838c0 .973.81 1.837 1.838 1.837 1.027 0 1.837-.864 1.837-1.837z" fill="#3455C3"/></svg>