<svg width="16" height="16" fill="none" xmlns="http://www.w3.org/2000/svg"><path fill-rule="evenodd" clip-rule="evenodd" d="M5.918 4.252c0 1.245-1.026 2.253-2.292 2.253-1.266 0-2.293-1.008-2.293-2.253C1.333 3.01 2.36 2 3.626 2c1.266 0 2.292 1.009 2.292 2.252zm7.744-.986a.997.997 0 011.004.986c0 .545-.45.988-1.004.988H9.278a.997.997 0 01-1.005-.988c0-.544.45-.986 1.005-.986h4.384zM2.338 10.639h4.384a.997.997 0 011.005.987c0 .545-.45.988-1.005.988H2.338a.997.997 0 01-1.005-.988c0-.545.45-.987 1.005-.987zm10.036 3.213c1.266 0 2.292-1.009 2.292-2.252 0-1.245-1.026-2.254-2.292-2.254-1.266 0-2.293 1.009-2.293 2.254 0 1.243 1.027 2.252 2.293 2.252z" fill="#fff"/></svg>