<svg width="14" height="20" fill="none" xmlns="http://www.w3.org/2000/svg"><path d="M7.18.065a.667.667 0 00-.759.149.805.805 0 00-.205.738c.099.44.15.9.15 1.37 0 1.077-.27 1.83-.737 2.455-.474.635-1.16 1.152-2.027 1.735a.25.25 0 00-.038.031l-.105.106a6.75 6.75 0 109.685 2.63.25.25 0 00-.413-.05l-.208.241c-.878 1.027-1.587 1.855-3.04 2.225-.062.015-.1.004-.127-.013a.244.244 0 01-.091-.124.412.412 0 01.074-.414c.777-.843 1.329-1.987 1.526-3.614.37-3.048-1.016-6.294-3.686-7.465z" fill="#fff"/></svg>