<svg width="34" height="20" fill="none" xmlns="http://www.w3.org/2000/svg"><path fill-rule="evenodd" clip-rule="evenodd" d="M32.904 1.354c.234-.78 0-1.354-1.115-1.354h-3.684c-.937 0-1.368.496-1.603 1.042 0 0-1.873 4.567-4.527 7.533-.859.859-1.25 1.132-1.718 1.132-.234 0-.585-.273-.585-1.054V1.354c0-.936-.26-1.354-1.04-1.354h-5.79c-.585 0-.937.435-.937.847 0 .888 1.327 1.093 1.463 3.59v5.426c0 1.19-.214 1.405-.683 1.405-1.249 0-4.287-4.587-6.089-9.836C6.243.412 5.89 0 4.947 0H1.263C.211 0 0 .496 0 1.042c0 .976 1.249 5.816 5.816 12.217C8.86 17.63 13.149 20 17.053 20c2.341 0 2.631-.526 2.631-1.433v-3.304c0-1.053.222-1.263.964-1.263.546 0 1.483.274 3.669 2.381C26.815 18.88 27.227 20 28.632 20h3.684c1.052 0 1.579-.526 1.275-1.565-.332-1.035-1.525-2.537-3.107-4.317-.86-1.015-2.147-2.108-2.538-2.655-.546-.702-.39-1.014 0-1.639 0 0 4.49-6.323 4.958-8.47z" fill="#222B45"/></svg>