<svg width="25" height="25" fill="none" xmlns="http://www.w3.org/2000/svg"><path d="M21.302 21.302h-3.704V15.5c0-1.384-.025-3.165-1.927-3.165-1.93 0-2.225 1.508-2.225 3.064V21.3H9.742V9.371h3.556v1.631h.05a3.897 3.897 0 013.509-1.927c3.754 0 4.447 2.47 4.447 5.682l-.002 6.545zM5.562 7.742a2.15 2.15 0 110-4.3 2.15 2.15 0 010 4.3zm1.852 13.56H3.706V9.372h3.708v11.93zM23.15.002H1.845A1.824 1.824 0 000 1.804v21.392A1.826 1.826 0 001.845 25h21.304A1.83 1.83 0 0025 23.196V1.802A1.829 1.829 0 0023.149 0" fill="#222B45"/></svg>