<svg width="25" height="21" fill="none" xmlns="http://www.w3.org/2000/svg"><path d="M22.44 5.057c.016.22.016.44.016.663 0 6.778-5.16 14.594-14.594 14.594v-.004A14.52 14.52 0 010 18.01a10.3 10.3 0 007.59-2.126 5.136 5.136 0 01-4.79-3.561 5.112 5.112 0 002.315-.088A5.13 5.13 0 011 7.207v-.065a5.097 5.097 0 002.328.642A5.135 5.135 0 011.741.936a14.557 14.557 0 0010.57 5.358 5.135 5.135 0 018.74-4.678A10.293 10.293 0 0024.31.371a5.148 5.148 0 01-2.254 2.837A10.2 10.2 0 0025 2.4a10.42 10.42 0 01-2.56 2.657z" fill="#222B45"/></svg>