<svg width="11" height="14" fill="none" xmlns="http://www.w3.org/2000/svg"><path fill-rule="evenodd" clip-rule="evenodd" d="M7.3.667A.167.167 0 007.133.5H2.467C1.454.5.633 1.32.633 2.333v9.334c0 1.012.821 1.833 1.834 1.833h6.666c1.013 0 1.834-.82 1.834-1.833V5.098a.167.167 0 00-.167-.167h-3a.5.5 0 01-.5-.5V.667zm.5 6.5a.5.5 0 110 1h-4a.5.5 0 110-1h4zm0 2.666a.5.5 0 010 1h-4a.5.5 0 110-1h4z" fill="#222B45"/><path d="M8.3.883c0-.123.128-.201.224-.124.08.065.153.141.215.227l2.009 2.799c.046.064-.004.146-.082.146h-2.2a.167.167 0 01-.166-.166V.883z" fill="#222B45"/></svg>