<svg width="16" height="16" fill="none" xmlns="http://www.w3.org/2000/svg"><path fill-rule="evenodd" clip-rule="evenodd" d="M2.333 6.879c0-3.067 2.563-5.546 5.662-5.546 3.109 0 5.671 2.479 5.671 5.546 0 1.545-.562 2.98-1.487 4.195a14.708 14.708 0 01-3.694 3.428c-.324.212-.616.228-.972 0a14.426 14.426 0 01-3.693-3.428c-.926-1.216-1.487-2.65-1.487-4.195zm3.796.172c0 1.027.838 1.835 1.866 1.835 1.029 0 1.875-.808 1.875-1.835 0-1.02-.846-1.866-1.875-1.866A1.876 1.876 0 006.13 7.05z" fill="#3455C3"/></svg>