<svg width="36" height="34" fill="none" xmlns="http://www.w3.org/2000/svg"><path fill-rule="evenodd" clip-rule="evenodd" d="M24.006 11.663c0 3.329-2.705 5.998-6.08 5.998-3.374 0-6.08-2.67-6.08-5.998 0-3.33 2.706-5.996 6.08-5.996 3.375 0 6.08 2.666 6.08 5.996zm-6.08 16.67c-4.956 0-9.188-.77-9.188-3.853 0-3.084 4.205-3.882 9.188-3.882 4.957 0 9.188.77 9.188 3.854 0 3.083-4.204 3.881-9.188 3.881zm8.679-16.562a8.056 8.056 0 01-1.422 4.592.224.224 0 00.154.346c.227.038.46.06.699.066 2.373.062 4.503-1.445 5.091-3.714.872-3.37-1.687-6.394-4.947-6.394-.354 0-.693.037-1.023.103-.045.01-.093.03-.119.07-.03.049-.007.114.024.156a8.118 8.118 0 011.543 4.775zm3.93 7.372c1.595.307 2.644.935 3.078 1.847a2.677 2.677 0 010 2.366c-.664 1.415-2.808 1.869-3.64 1.986a.26.26 0 01-.293-.29c.426-3.921-2.959-5.78-3.834-6.208-.038-.019-.046-.048-.042-.066.003-.013.018-.033.047-.037 1.894-.035 3.931.22 4.684.402zm-20.57-2.368a4.84 4.84 0 00.698-.066.224.224 0 00.154-.346 8.056 8.056 0 01-1.421-4.592c0-1.77.564-3.422 1.543-4.775.03-.042.053-.107.023-.156-.026-.038-.075-.06-.12-.07a5.182 5.182 0 00-1.023-.103c-3.26 0-5.82 3.025-4.946 6.394.588 2.269 2.718 3.775 5.092 3.714zm.23 2.002c.004.02-.003.047-.04.068-.876.427-4.261 2.286-3.836 6.206.018.17-.119.316-.29.292-.834-.118-2.977-.572-3.641-1.987a2.668 2.668 0 010-2.365c.434-.913 1.482-1.54 3.076-1.849.754-.18 2.79-.435 4.686-.4.029.003.043.024.045.035z" fill="url(#paint0_linear_56_4987)"/><defs><linearGradient id="paint0_linear_56_4987" x1="7.092" y1="8.223" x2="18.663" y2="30.423" gradientUnits="userSpaceOnUse"><stop stop-color="#3455C3"/><stop offset="1" stop-color="#4384E6"/></linearGradient></defs></svg>