<svg width="36" height="34" fill="none" xmlns="http://www.w3.org/2000/svg"><path d="M13.861 29.429v-4.332c0-1.106.921-2.002 2.057-2.002h4.151c.546 0 1.069.21 1.454.586.386.376.603.885.603 1.416v4.332c-.004.46.181.902.514 1.228.333.326.785.51 1.258.51h2.832a5.049 5.049 0 003.53-1.416 4.784 4.784 0 001.462-3.432V13.978a3.48 3.48 0 00-1.293-2.695l-9.635-7.492a4.542 4.542 0 00-5.704.1l-9.415 7.392a3.483 3.483 0 00-1.397 2.695v12.328c0 2.684 2.235 4.86 4.992 4.86h2.768c.98 0 1.777-.77 1.784-1.724l.04-.013z" fill="url(#paint0_linear_56_5000)"/><defs><linearGradient id="paint0_linear_56_5000" x1="8.579" y1="6.028" x2="25.546" y2="28.519" gradientUnits="userSpaceOnUse"><stop stop-color="#3455C3"/><stop offset="1" stop-color="#4384E6"/></linearGradient></defs></svg>