<svg width="36" height="34" fill="none" xmlns="http://www.w3.org/2000/svg"><path fill-rule="evenodd" clip-rule="evenodd" d="M30.132 12.957l1.04 1.02a4.147 4.147 0 011.272 3.003 4.172 4.172 0 01-1.243 3.018l-.029.028-.014.014-1.026 1.006a2.103 2.103 0 00-.636 1.503v1.458c0 2.351-1.95 4.265-4.35 4.265h-1.488c-.578 0-1.127.226-1.531.622l-1.04 1.02a4.37 4.37 0 01-3.078 1.247 4.422 4.422 0 01-3.078-1.231l-1.055-1.036a2.186 2.186 0 00-1.532-.622h-1.488c-2.399 0-4.35-1.913-4.35-4.265v-1.458a2.16 2.16 0 00-.635-1.517l-1.04-1.006a4.223 4.223 0 01-.015-6.034l1.055-1.035a2.11 2.11 0 00.636-1.516V9.996c0-2.352 1.95-4.263 4.349-4.263h1.488c.578 0 1.127-.228 1.532-.624l1.04-1.02c1.691-1.67 4.45-1.67 6.156-.013l1.055 1.033a2.19 2.19 0 001.531.624h1.489c2.398 0 4.35 1.911 4.35 4.263v1.46c0 .566.23 1.104.635 1.5zM14.28 21.882c.346 0 .664-.128.896-.369l7.427-7.28a1.233 1.233 0 000-1.758 1.276 1.276 0 00-1.778 0L13.4 19.757a1.231 1.231 0 000 1.756c.231.241.55.369.882.369zm6.17-1.247c0 .694.563 1.247 1.271 1.247.694 0 1.257-.553 1.257-1.247 0-.678-.563-1.232-1.257-1.232-.708 0-1.271.554-1.271 1.232zm-6.156-8.514c.694 0 1.257.553 1.257 1.232 0 .696-.563 1.247-1.257 1.247s-1.271-.55-1.271-1.246c0-.68.578-1.233 1.271-1.233z" fill="url(#paint0_linear_56_4993)"/><defs><linearGradient id="paint0_linear_56_4993" x1="8.083" y1="6.028" x2="24.787" y2="29.341" gradientUnits="userSpaceOnUse"><stop stop-color="#3455C3"/><stop offset="1" stop-color="#4384E6"/></linearGradient></defs></svg>