<svg width="36" height="34" fill="none" xmlns="http://www.w3.org/2000/svg"><path fill-rule="evenodd" clip-rule="evenodd" d="M17.607 31.044a1.126 1.126 0 001.036-.005l5.153-2.702c1.462-.764 2.606-1.619 3.499-2.613 1.941-2.167 3.001-4.933 2.982-7.785l-.06-9.408c-.006-1.083-.732-2.05-1.805-2.402l-9.588-3.155a2.779 2.779 0 00-1.777.01l-9.55 3.267c-1.068.366-1.78 1.34-1.775 2.425l.061 9.4c.02 2.856 1.116 5.61 3.089 7.755.902.98 2.056 1.822 3.534 2.574l5.201 2.64zm-1.364-11.056c.215.203.494.303.774.3a1.11 1.11 0 00.769-.31l5.632-5.446a1.01 1.01 0 00-.009-1.472 1.127 1.127 0 00-1.543.008L17 17.772l-1.992-1.878a1.127 1.127 0 00-1.543.01 1.008 1.008 0 00.01 1.472l2.768 2.612z" fill="url(#paint0_linear_56_5009)"/><defs><linearGradient id="paint0_linear_56_5009" x1="9.571" y1="6.028" x2="26.962" y2="26.655" gradientUnits="userSpaceOnUse"><stop stop-color="#3455C3"/><stop offset="1" stop-color="#4384E6"/></linearGradient></defs></svg>