<svg width="35" height="34" fill="none" xmlns="http://www.w3.org/2000/svg"><path fill-rule="evenodd" clip-rule="evenodd" d="M25.93 11.874h5.994c0-4.812-2.883-7.624-7.77-7.624H11.362c-4.886 0-7.77 2.812-7.77 7.563v10.374c0 4.752 2.884 7.563 7.77 7.563h12.794c4.886 0 7.77-2.811 7.77-7.563v-.442H25.93c-2.781 0-5.037-2.198-5.037-4.91 0-2.713 2.256-4.912 5.037-4.912v-.049zm0 2.112h4.937c.584 0 1.057.462 1.057 1.031v3.585a1.057 1.057 0 01-1.057 1.032h-4.823c-1.409.018-2.64-.922-2.96-2.26-.16-.83.065-1.686.614-2.34a2.963 2.963 0 012.232-1.048zm.215 3.77h.465c.599 0 1.083-.474 1.083-1.057s-.485-1.056-1.083-1.056h-.465a1.085 1.085 0 00-.765.302 1.03 1.03 0 00-.318.742c0 .585.482 1.061 1.082 1.068zm-15.842-5.882h7.996c.598 0 1.083-.473 1.083-1.056 0-.583-.485-1.055-1.083-1.055h-7.996a1.07 1.07 0 00-1.083 1.043c0 .585.483 1.062 1.083 1.068z" fill="#fff"/></svg>