<svg width="35" height="33" fill="none" xmlns="http://www.w3.org/2000/svg"><path fill-rule="evenodd" clip-rule="evenodd" d="M13.34 22.536h7.63c.576 0 1.052-.467 1.052-1.031 0-.564-.476-1.017-1.052-1.017h-7.63c-.575 0-1.052.453-1.052 1.017 0 .564.477 1.031 1.052 1.031zm4.741-8.924H13.34c-.575 0-1.052.468-1.052 1.032 0 .563.477 1.017 1.052 1.017h4.741c.575 0 1.052-.454 1.052-1.017 0-.564-.477-1.031-1.052-1.031zm10.01-1.202c.33-.004.688-.008 1.015-.008.35 0 .63.276.63.62v11.054c0 3.41-2.818 6.174-6.297 6.174H12.274c-3.647 0-6.62-2.901-6.62-6.476V8.95c0-3.41 2.833-6.201 6.325-6.201h7.49c.365 0 .646.289.646.632V7.81c0 2.516 2.118 4.579 4.685 4.593.6 0 1.128.004 1.59.008a71.157 71.157 0 001.7 0zm.387-2.007c-1.153.004-2.513 0-3.49-.01-1.552 0-2.83-1.252-2.83-2.773V3.996c0-.593.734-.887 1.154-.46l2.842 2.898 2.805 2.86c.41.416.11 1.108-.481 1.11z" fill="#fff"/></svg>