<svg version="1.0" xmlns="http://www.w3.org/2000/svg" width="682.667" height="682.667" viewBox="0 0 512 512"><path d="M98.5 20.5c-3 1.1-14.6 12.1-51.2 48.7C3.1 113.4 0 116.8 0 120c0 3.3 3.1 6.6 47.7 51.2C90 213.3 96 219 99.8 220c8.1 2.1 11.1.4 25.9-14.3 10.8-10.8 13.3-14 14.3-17.5 2-7.8.3-11.2-12.8-24.5L115.6 152h145c159.5 0 150.3-.3 162.5 6.1 14.1 7.5 24.9 25.3 24.9 40.7 0 7.5 2 12.3 7.5 17.7 6.3 6.4 10 7.5 24.5 7.5s18.2-1.1 24.5-7.5c7.4-7.4 8.8-14.2 6.5-31-4.2-29.1-18.8-55-41.1-72.8-9.1-7.3-23.9-15.4-35.1-19.2C418 87.9 420.1 88 261.6 88h-146l11.6-11.8C140.3 63 142 59.6 139.9 51.7c-.9-3.4-3.5-6.6-13.2-16.5-6.7-6.8-13.3-13-14.7-13.7-4.2-2.2-9.2-2.6-13.5-1zM16 289.3c-4.9 1.6-13.3 10.2-14.8 15.3-1.6 5.4-1.5 12.8.3 24.4 7.4 48.8 46.3 86.9 96 94 4.4.6 61.6 1 152.9 1h146l-11.6 11.8C371.7 449 370 452.4 372 460.3c1 3.4 3.5 6.6 14.3 17.4 14.8 14.7 17.8 16.4 26 14.3 3.7-1 9.7-6.7 52-48.8 44.6-44.7 47.7-47.9 47.7-51.2 0-3.3-3.1-6.5-47.7-51.2-42.3-42.1-48.3-47.8-52-48.8-8.2-2.1-11.2-.4-26 14.3-10.8 10.8-13.3 14-14.3 17.4-2 7.9-.3 11.3 12.8 24.5l11.6 11.8h-145c-157.9 0-150 .3-161.6-5.6-14.5-7.3-25.8-25.5-25.8-41.2 0-2.5-.5-6.3-1.2-8.6-1.6-5.5-9.9-13.8-15.4-15.4-5.1-1.5-26.6-1.4-31.4.1z" fill="#3455c3"/></svg>