<svg width="16" height="14" fill="none" xmlns="http://www.w3.org/2000/svg"><path fill-rule="evenodd" clip-rule="evenodd" d="M12.862 12.842l.014-.033 2.249-11.34v-.037c0-.282-.104-.529-.332-.677-.198-.13-.427-.138-.587-.126a1.983 1.983 0 00-.579.139l-.041.016-.01.005-12.54 4.919-.003.001a1.338 1.338 0 00-.112.046c-.068.03-.161.078-.256.143-.161.11-.468.372-.417.786.043.343.28.56.44.674a1.551 1.551 0 00.326.175l.008.003.005.002 2.194.738c-.008.138.006.278.042.417l1.1 4.169a1.125 1.125 0 002.125.147l1.716-1.835 2.947 2.26.042.018c.267.117.517.154.746.122.229-.03.41-.127.546-.236a1.309 1.309 0 00.369-.476l.005-.013.002-.005.001-.002zm-8.51-4.436a.225.225 0 01.096-.247l7.442-4.726s.437-.266.422 0c0 0 .078.047-.157.266-.222.208-5.304 5.113-5.818 5.61a.208.208 0 00-.058.101l-.829 3.165-1.099-4.169z" fill="#222B45"/></svg>