<svg width="16" height="16" fill="none" xmlns="http://www.w3.org/2000/svg"><path d="M12.288 7.28a4.272 4.272 0 00-1.02-1.417l-.357-.328a.1.1 0 00-.16.04l-.16.459a2.62 2.62 0 01-.542.87.077.077 0 01-.05.025.068.068 0 01-.053-.019.072.072 0 01-.025-.059c.046-.74-.176-1.575-.66-2.483a4.381 4.381 0 00-1.654-1.755L7.1 2.315a.099.099 0 00-.147.09l.027.59c.018.403-.028.76-.139 1.056-.135.362-.33.7-.578 1.002-.173.21-.369.4-.584.566-.518.399-.94.91-1.233 1.494a4.275 4.275 0 00-.104 3.57 4.32 4.32 0 002.304 2.282 4.336 4.336 0 001.683.336 4.346 4.346 0 003.059-1.254 4.256 4.256 0 001.268-3.035c0-.6-.122-1.183-.367-1.733z" fill="#3455C3"/></svg>