<svg width="25" height="17" fill="none" xmlns="http://www.w3.org/2000/svg"><path d="M24.481 2.66a3.032 3.032 0 00-.806-1.353 3.165 3.165 0 00-1.39-.788C20.323 0 12.498 0 12.498 0S4.674 0 2.714.501a3.215 3.215 0 00-1.389.801A3.083 3.083 0 00.517 2.66 31.03 31.03 0 00.001 8.5a31.01 31.01 0 00.516 5.84c.143.511.421.978.806 1.353.385.376.865.647 1.39.789C4.693 17 12.5 17 12.5 17s7.825 0 9.785-.502a3.146 3.146 0 001.393-.786c.385-.376.663-.843.804-1.355a31.03 31.03 0 00.516-5.857 29.005 29.005 0 00-.516-5.84zm-14.476 9.478V4.862L16.516 8.5l-6.511 3.638z" fill="#222B45"/></svg>