<svg width="48" height="48" fill="none" xmlns="http://www.w3.org/2000/svg"><path d="M24 48c13.255 0 24-10.745 24-24S37.255 0 24 0 0 10.745 0 24s10.745 24 24 24z" fill="#0052B4"/><path d="M24 9.391l.777 2.392h2.515l-2.035 1.478.777 2.391L24 14.174l-2.034 1.478.777-2.391-2.034-1.478h2.514L24 9.39zM13.67 13.67l2.24 1.142 1.779-1.778-.394 2.483 2.24 1.142-2.483.393-.393 2.484-1.142-2.24-2.483.393 1.778-1.778-1.142-2.24zM9.391 24l2.392-.777v-2.515l1.478 2.035 2.391-.777L14.174 24l1.478 2.034-2.391-.777-1.478 2.035v-2.515L9.39 24zm4.279 10.33l1.142-2.24-1.778-1.779 2.483.394 1.142-2.24.393 2.483 2.484.393-2.24 1.142.393 2.483-1.778-1.778-2.24 1.142zM24 38.609l-.777-2.392h-2.514l2.034-1.478-.777-2.391L24 33.826l2.034-1.478-.777 2.391 2.035 1.478h-2.515L24 38.61zm10.33-4.279l-2.24-1.142-1.779 1.778.394-2.483-2.24-1.142 2.483-.393.393-2.484 1.142 2.24 2.483-.393-1.778 1.779 1.142 2.24zM38.609 24l-2.392.777v2.515l-1.478-2.035-2.391.777L33.826 24l-1.478-2.034 2.391.777 1.478-2.035v2.515L38.61 24zM34.33 13.67l-1.142 2.24 1.778 1.779-2.483-.394-1.142 2.24-.393-2.483-2.483-.393 2.24-1.142-.394-2.483 1.779 1.778 2.24-1.142z" fill="#FFDA44"/></svg>