<svg width="48" height="48" fill="none" xmlns="http://www.w3.org/2000/svg"><path d="M24 48c13.255 0 24-10.745 24-24S37.255 0 24 0 0 10.745 0 24s10.745 24 24 24z" fill="#F0F0F0"/><path d="M4.961 9.388A23.912 23.912 0 00.827 17.74h12.485l-8.35-8.35zm42.212 8.352a23.912 23.912 0 00-4.134-8.352l-8.351 8.351h12.485zM.827 30.261a23.916 23.916 0 004.134 8.35l8.35-8.35H.828zm37.785-25.3A23.914 23.914 0 0030.26.827v12.485l8.35-8.35zM9.388 43.039a23.914 23.914 0 008.351 4.134V34.688l-8.35 8.35zM17.74.827A23.915 23.915 0 009.387 4.96l8.351 8.351V.827zm12.52 46.346a23.915 23.915 0 008.352-4.134l-8.351-8.351v12.485zm4.428-16.912l8.35 8.35a23.913 23.913 0 004.135-8.35H34.688z" fill="#0052B4"/><path d="M47.797 20.87H27.13V.203a24.24 24.24 0 00-6.261 0V20.87H.203a24.24 24.24 0 000 6.261H20.87v20.667a24.22 24.22 0 006.261 0V27.13h20.667a24.22 24.22 0 000-6.261z" fill="#D80027"/><path d="M30.26 30.261l10.71 10.71c.493-.493.963-1.007 1.411-1.541l-9.169-9.17h-2.951v.001zm-12.52 0h-.001l-10.71 10.71c.493.492 1.008.962 1.541 1.41l9.17-9.169v-2.951zm0-12.521L7.03 7.03a24.06 24.06 0 00-1.411 1.54l9.169 9.17h2.951zm12.52 0L40.97 7.03a24.019 24.019 0 00-1.54-1.411l-9.17 9.169v2.951z" fill="#D80027"/></svg>