<svg width="16" height="16" fill="none" xmlns="http://www.w3.org/2000/svg"><path d="M3.406 12.594c-.575-.575-.194-1.781-.487-2.488C2.625 9.4 1.5 8.781 1.5 8c0-.781 1.112-1.375 1.419-2.106.306-.732-.088-1.913.487-2.488s1.781-.194 2.488-.487C6.6 2.625 7.219 1.5 8 1.5c.781 0 1.375 1.112 2.106 1.419.732.306 1.913-.088 2.488.487s.194 1.781.487 2.488C13.375 6.6 14.5 7.219 14.5 8c0 .781-1.113 1.375-1.419 2.106-.306.732.088 1.913-.487 2.488s-1.781.194-2.488.487C9.4 13.375 8.781 14.5 8 14.5c-.781 0-1.375-1.113-2.106-1.419-.732-.306-1.913.088-2.488-.487z" fill="#FFF" stroke="#FFF" stroke-linecap="round" stroke-linejoin="round"/><path d="M10.75 6.5L7.081 10 5.25 8.25" stroke="#222B45" stroke-linecap="round" stroke-linejoin="round"/></svg>