<svg width="13" height="12" fill="none" xmlns="http://www.w3.org/2000/svg"><g clip-path="url(#clip0_2083_105407)"><path d="M8.57 5.423a2.062 2.062 0 00-1.242-3.539v-.759a.375.375 0 10-.75 0v.75h-.75v-.75a.375.375 0 10-.75 0v.75h-1.5a.375.375 0 000 .75h.375V9h-.375a.375.375 0 000 .75h1.5v.75a.375.375 0 00.75 0v-.75h.75v.75a.375.375 0 00.75 0v-.75h.375a2.25 2.25 0 00.867-4.327zm-.117-1.486A1.317 1.317 0 017.141 5.25H4.703V2.625h2.438a1.317 1.317 0 011.312 1.313zM7.703 9h-3V6h3a1.5 1.5 0 010 3z" fill="#222B45"/></g><defs><clipPath id="clip0_2083_105407"><path fill="#fff" transform="translate(.578)" d="M0 0h12v12H0z"/></clipPath></defs></svg>