<svg width="14" height="12" fill="none" xmlns="http://www.w3.org/2000/svg"><path fill-rule="evenodd" clip-rule="evenodd" d="M4.814 2.247c0 1.241-1.077 2.247-2.407 2.247C1.078 4.494 0 3.488 0 2.247 0 1.007 1.078 0 2.407 0c1.33 0 2.407 1.006 2.407 2.247zm8.131-.984c.582 0 1.055.441 1.055.984 0 .544-.473.985-1.055.985H8.343c-.583 0-1.056-.441-1.056-.985 0-.543.473-.984 1.056-.984h4.602zM1.055 8.617h4.603c.583 0 1.056.441 1.056.985 0 .543-.473.985-1.056.985H1.055C.473 10.587 0 10.145 0 9.602c0-.544.473-.985 1.055-.985zm10.537 3.205c1.33 0 2.407-1.006 2.407-2.246 0-1.242-1.077-2.248-2.407-2.248S9.185 8.334 9.185 9.576c0 1.24 1.078 2.246 2.407 2.246z" fill="#3455C3"/></svg>