<svg width="13" height="12" fill="none" xmlns="http://www.w3.org/2000/svg"><g clip-path="url(#clip0_2083_105406)"><path d="M11.078 2.25h-9a.75.75 0 00-.75.75v5.995a.75.75 0 00.75.75h9a.75.75 0 00.75-.75V3a.75.75 0 00-.75-.75zm-4.125 6h-.75a.375.375 0 010-.75h.75a.375.375 0 010 .75zm3 0h-1.5a.375.375 0 010-.75h1.5a.375.375 0 110 .75zM2.078 4.167V3h9v1.167h-9z" fill="#222B45"/></g><defs><clipPath id="clip0_2083_105406"><path fill="#fff" transform="translate(.578)" d="M0 0h12v12H0z"/></clipPath></defs></svg>