<svg width="17" height="16" fill="none" xmlns="http://www.w3.org/2000/svg"><path d="M14.4 2.468A.507.507 0 0013.931 2C9.163 1.718 5.344 3.156 3.713 5.85a5.456 5.456 0 00-.8 3.068c.037.994.325 2.007.862 3l6.269-6.275a.506.506 0 01.712.713l-6.275 6.269c.994.537 2.007.825 3 .862h.207a5.437 5.437 0 002.862-.8c2.694-1.631 4.131-5.45 3.85-10.219z" fill="#34C85A"/><path d="M3.969 12.255c-.069-.112-.131-.225-.194-.337l-1.231 1.225a.506.506 0 000 .712.512.512 0 00.713 0l1.225-1.23-.338-.194a.582.582 0 01-.175-.175z" fill="#34C85A"/></svg>