<svg width="13" height="12" fill="none" xmlns="http://www.w3.org/2000/svg"><g clip-path="url(#clip0_2083_105413)"><path d="M12.203 5.62v-.01c0-.01 0-.021-.005-.032v-.014c0-.01-.004-.019-.004-.028v-.01l-.01-.037h-.004l-.657-1.631a.736.736 0 00-.698-.483H9.203V3a.375.375 0 00-.375-.375H1.703a.75.75 0 00-.75.75v5.25a.75.75 0 00.75.75h.61a1.5 1.5 0 002.906 0h2.718a1.5 1.5 0 002.907 0h.61a.75.75 0 00.75-.75V5.62zm-3-1.495h1.622l.45 1.125H9.203V4.125zm-7.5-.75h6.75v3h-6.75v-3zM3.766 9.75a.75.75 0 110-1.5.75.75 0 010 1.5zm5.625 0a.75.75 0 110-1.5.75.75 0 010 1.5z" fill="#222B45"/></g><defs><clipPath id="clip0_2083_105413"><path fill="#fff" transform="translate(.578)" d="M0 0h12v12H0z"/></clipPath></defs></svg>