<svg width="13" height="12" fill="none" xmlns="http://www.w3.org/2000/svg"><g clip-path="url(#clip0_2083_105408)"><path d="M11.069 8.002a.367.367 0 00-.277-.127h-.464V3a1.504 1.504 0 00-1.5-1.5H2.453A1.505 1.505 0 00.953 3c-.001.37.136.725.385.998a.37.37 0 00.613-.083.375.375 0 00-.056-.413A.75.75 0 113.203 3v6a1.505 1.505 0 001.5 1.5h5.25a1.505 1.505 0 001.5-1.5 1.477 1.477 0 00-.384-.998zM5.453 4.5h3a.375.375 0 010 .75h-3a.375.375 0 010-.75zm-.375 1.875A.375.375 0 015.453 6h3a.375.375 0 010 .75h-3a.375.375 0 01-.375-.375zM9.953 9.75H6.002a1.51 1.51 0 00.154-1.125h4.449a.755.755 0 01-.652 1.125z" fill="#222B45"/></g><defs><clipPath id="clip0_2083_105408"><path fill="#fff" transform="translate(.578)" d="M0 0h12v12H0z"/></clipPath></defs></svg>