<svg width="12" height="14" fill="none" xmlns="http://www.w3.org/2000/svg"><path fill-rule="evenodd" clip-rule="evenodd" d="M6.366 8.152h1.142a.497.497 0 000-.993H6.366V6.005a.49.49 0 00-.488-.493.495.495 0 00-.495.493V7.16H4.247a.497.497 0 000 .993h1.136v1.153c0 .274.224.494.495.494a.49.49 0 00.488-.494V8.152zm4.526-3.136c.155-.002.324-.004.477-.004.165 0 .297.133.297.3v5.36c0 1.653-1.326 2.993-2.97 2.993H3.449c-1.717 0-3.116-1.406-3.116-3.14V3.34C.333 1.685 1.666.332 3.31.332h3.525c.171 0 .303.14.303.307v2.146c0 1.22.997 2.22 2.205 2.227.282 0 .53.002.748.004l.453.003.348-.003zm.181-.973c-.543.002-1.182 0-1.642-.005-.73 0-1.332-.607-1.332-1.345V.936c0-.287.346-.43.543-.223l1.336 1.404L11.3 3.505a.318.318 0 01-.226.538z" fill="#fff"/></svg>