<svg width="13" height="12" fill="none" xmlns="http://www.w3.org/2000/svg"><g clip-path="url(#clip0_2083_105412)"><path d="M10.463 6.887a3.403 3.403 0 01-3.745.708l-2.437 2.822c-.005.01-.014.014-.02.018a1.495 1.495 0 01-2.118 0 1.495 1.495 0 010-2.118l.019-.019L4.984 5.86a3.375 3.375 0 014.41-4.462.37.37 0 01.212.454.375.375 0 01-.094.155L7.688 3.831l.174.886.886.173 1.823-1.823a.375.375 0 01.61.117 3.362 3.362 0 01-.718 3.703z" fill="#222B45"/></g><defs><clipPath id="clip0_2083_105412"><path fill="#fff" transform="translate(.578)" d="M0 0h12v12H0z"/></clipPath></defs></svg>