<svg width="13" height="12" fill="none" xmlns="http://www.w3.org/2000/svg"><g clip-path="url(#clip0_2083_105414)"><path d="M10.328 1.875h-7.5a.75.75 0 00-.75.75v2.752c0 4.19 3.553 5.582 4.266 5.817.152.05.316.05.468 0 .713-.235 4.266-1.627 4.266-5.817V2.625a.75.75 0 00-.75-.75zm-1.43 3.272L6.152 7.772a.38.38 0 01-.52 0L4.257 6.459a.375.375 0 11.515-.543L5.89 6.98l2.494-2.377a.375.375 0 01.515.544z" fill="#222B45"/></g><defs><clipPath id="clip0_2083_105414"><path fill="#fff" transform="translate(.578)" d="M0 0h12v12H0z"/></clipPath></defs></svg>