<svg width="13" height="12" fill="none" xmlns="http://www.w3.org/2000/svg"><g clip-path="url(#clip0_2083_105415)"><path d="M11.073 3.066l-.571 3.136a1.125 1.125 0 01-1.107.923H3.958l.206 1.125h5.04a1.125 1.125 0 11-1.06.75H5.388a1.125 1.125 0 11-1.913-.356L2.177 1.5h-.849a.375.375 0 010-.75h.849a.75.75 0 01.736.614l.23 1.261h7.56a.37.37 0 01.286.136.361.361 0 01.084.305z" fill="#222B45"/></g><defs><clipPath id="clip0_2083_105415"><path fill="#fff" transform="translate(.578)" d="M0 0h12v12H0z"/></clipPath></defs></svg>