<svg width="13" height="12" fill="none" xmlns="http://www.w3.org/2000/svg"><g clip-path="url(#clip0_2083_105410)"><path d="M10.057 9.413a4.865 4.865 0 000-6.825.107.107 0 00-.033-.033 4.866 4.866 0 00-6.923.033 4.866 4.866 0 000 6.825l.032.033a4.866 4.866 0 006.923-.033zM5.079 6a1.5 1.5 0 113 0 1.5 1.5 0 01-3 0zm4.139-3.168L7.882 4.168a2.245 2.245 0 00-2.607 0L3.94 2.832a4.12 4.12 0 015.278 0zM3.94 9.169l1.335-1.336a2.245 2.245 0 002.607 0L9.218 9.17a4.12 4.12 0 01-5.278 0z" fill="#222B45"/></g><defs><clipPath id="clip0_2083_105410"><path fill="#fff" transform="translate(.578)" d="M0 0h12v12H0z"/></clipPath></defs></svg>