<svg width="21" height="22" fill="none" xmlns="http://www.w3.org/2000/svg"><path d="M20.505.202c-.395-.296-.986-.296-1.38.197L16.262 3.95c-1.578-1.085-3.452-1.677-5.524-1.677-5.425 0-9.864 4.439-9.864 9.864C.875 17.56 5.314 22 10.739 22c5.426 0 9.865-4.439 9.865-9.863 0-1.973-.592-3.748-1.579-5.327l-.69.79-.69.789-5.722 7.2c-.197.197-.493.394-.79.394-.295 0-.492-.098-.69-.296L6.202 11.15c-.296-.296-.296-.789-.198-1.085 0-.098.1-.197.198-.296a.954.954 0 011.38 0l3.453 3.748 5.426-6.805.592-.79.591-.788 2.861-3.551c.493-.395.493-.987 0-1.381z" fill="#222B45"/></svg>