<svg version="1.0" xmlns="http://www.w3.org/2000/svg" width="3413.333" height="685.333" viewBox="0 0 2560 514"><g fill="#222b45"><path d="M175.7 78.8L97 157.5l28.7 28.8 28.8 28.7 49.7-49.7 49.8-49.8 50 50 50 50 28.5-28.5c15.7-15.7 28.5-28.9 28.5-29.5 0-.6-35.2-36.2-78.3-79.3L254.5 0l-78.8 78.8zm1974.8 42.7c-10.8 1.7-26.3 6.4-36.3 11.1-40 18.3-67.7 53.7-77.4 98.7-2.9 13.7-3.2 42.6-.5 56.2 11.4 56.6 51 97.4 107 110.1 4.6 1 14.1 1.8 26.2 2.1 30.4.8 48.7-2.7 71-13.7 13.5-6.6 25.5-15.3 36.4-26.3l7.4-7.5-18.4-19.1c-10.1-10.5-18.6-19.1-18.9-19.1-.3 0-3.4 2.5-7 5.6-15.3 13.1-29.7 20.8-44.5 23.9-11.5 2.4-29.8 2.2-39.8-.4-28.7-7.5-50.2-31.3-57.4-63.5-2.4-10.9-2.1-30.9.6-42.1 5.7-23.4 20.8-43.8 40.1-53.9 13.1-6.9 18.6-8.1 37-8.1 14.5 0 17.4.3 24 2.3 12.6 4 24 10.5 38.2 21.9l6.7 5.3 13.7-15.7c7.6-8.7 16.2-18.6 19.1-22l5.4-6.1-7.8-6.7c-19.9-17.1-37.8-25.9-63.8-31.5-13.1-2.9-47.3-3.7-61-1.5zm-727.8 135.7c-31.7 74.4-57.9 136.1-58.3 137.1-.6 1.6 1.2 1.7 29.7 1.7h30.4l12.4-30.5 12.4-30.5h115.3l12.4 30.5 12.4 30.5h30.8c17.2 0 30.8-.4 30.8-.9s-26-62-57.9-136.7l-57.8-135.9-27.5-.3-27.5-.2-57.6 135.2zm102.5-18.9l17.7 43.2-35.6.3c-19.6.1-35.8.1-36-.1-.4-.5 35-86.7 35.7-86.7.3 0 8.5 19.5 18.2 43.3zM601 260.1v136l75.3-.4c80-.5 80.2-.5 99.3-5.6 4.3-1.2 12.6-4.5 18.4-7.3 8.9-4.4 11.8-6.5 18.5-13.2 13.8-13.9 18.8-26.7 18.8-48.6 0-8.2-.6-14.9-1.7-19.4-4.6-19.3-17.4-33.3-40.6-44.3-6.6-3.1-7.3-3.7-5.6-4.7 15.1-8.8 26.8-23.9 31.1-40.2 2.1-7.8 2.1-26.9 0-34.9-6.1-23.8-26-42.2-53.1-49.1-15.4-3.9-27.1-4.4-95.6-4.4H601v136.1zM726.2 177c21.7 2.5 31.3 11.2 31.2 28.2-.1 13.4-6.3 21.4-20.2 26-6.3 2.1-8.8 2.2-42.4 2.6l-35.8.4v-28.5c0-15.6.3-28.7.7-29 1-1.1 56.8-.8 66.5.3zm20.9 108.4c11.4 2.4 18.7 7.5 23.2 16 2.8 5.4 3 17.1.4 23.8-2.1 5.4-8 11.1-14.2 13.8-9.4 4-15.3 4.5-57 4.5h-40l-.3-29.8-.2-29.7h40.7c31.2 0 42.4.4 47.4 1.4zM907 260v136h60l-.2-135.8-.3-135.7-29.7-.3-29.8-.2v136zm150 0v136h59v-86.1c0-53.9.4-85.8.9-85.4.6.3 30.3 39 66.2 86l65.1 85.5h50.8V124h-59l-.2 83.6-.3 83.5-63.5-83.5-63.5-83.5-27.7-.1H1057v136zm660 0v136h58v-86c0-47.3.3-86 .8-85.9.4 0 30.1 38.7 66.1 86l65.4 85.9h50.7V124h-59l-.2 83.5-.3 83.4-63.5-83.4-63.5-83.4-27.2-.1H1717v136zm638.7-135.3c-.4.3-.7 61.5-.7 136V396h205v-53h-146v-57h128v-53l-63.7-.2-63.8-.3-.3-27.8-.2-27.7h146v-53h-101.8c-56 0-102.2.3-102.5.7z"/><path d="M224.5 227l-29 29 29.5 29.5 29.5 29.5 29.2-29.2 29.3-29.3-29.2-29.2C267.7 211.2 254.3 198 254 198c-.3 0-13.6 13.1-29.5 29zm-196.8-.2C9.9 244.6 0 255.2 0 256.5c0 1.3 9.9 11.9 27.8 29.8L55.5 314l29-29 29-29L85 227.5C69.3 211.8 56.3 199 56 199c-.3 0-13 12.5-28.3 27.8zm396 1L395 256.5l28.8 28.8 28.7 28.7 29-29 29-29-28.5-28.5c-15.7-15.7-28.7-28.5-29-28.5-.3 0-13.4 12.9-29.3 28.8z"/><path d="M125.5 326l-29 29 78.8 78.8 78.7 78.7 78.7-78.7 78.8-78.8-28.5-28.5c-15.7-15.7-28.8-28.4-29.1-28.3-.4.2-23.1 22.3-50.4 49.2l-49.6 49-49.7-49.7-49.7-49.7-29 29z"/></g></svg>