<svg width="28" height="32" fill="none" xmlns="http://www.w3.org/2000/svg"><path d="M13.664 31.994a16.24 16.24 0 01-2.027-.201 13.935 13.935 0 01-6.989-3.384c-.258-.23-.784-.756-1.03-1.03A13.925 13.925 0 01.05 19.045c-.048-.65-.051-.87-.047-3.437l.004-2.555 3.808 1.674c2.095.92 3.817 1.68 3.827 1.687.015.01.018.2.014 1.076-.005 1.16-.005 1.16.08 1.64a6.362 6.362 0 002.427 3.963 6.36 6.36 0 0010.108-4.005c.084-.506.088-.595.077-1.679-.009-.832-.007-.982.01-.995.016-.013 7.515-3.314 7.611-3.35.032-.012.032-.012.027 2.753-.006 3.073-.005 3.03-.102 3.857a13.912 13.912 0 01-2.058 5.798 14.086 14.086 0 01-3.303 3.622 13.926 13.926 0 01-7.091 2.825c-.35.035-.629.055-1.022.072a8.762 8.762 0 01-.756.004zM5.467 10.81a7175 7175 0 00-3.8-1.612l-1.66-.703-.003-4.247L0 0h3.82c2.395 0 3.823.005 3.826.013.003.008 1.432.625 3.176 1.372 2.884 1.236 3.175 1.358 3.213 1.346.097-.032 6.314-2.706 6.319-2.718C20.357.005 21.795 0 24.179 0H28l-.003 4.248-.004 4.248-.252.108-6.62 2.805a22.09 22.09 0 01-.76.313c-.016 0-.02-.257-.02-1.776 0-.977-.005-1.779-.011-1.783-.007-.004-1.423.597-3.147 1.337a467.556 467.556 0 01-3.164 1.35c-.02.005-1.136-.467-3.183-1.344a240.15 240.15 0 00-3.165-1.344c-.008.005-.013.713-.013 1.784 0 1.682-.001 1.776-.025 1.774-.013 0-.988-.41-2.166-.91z" fill="url(#paint0_linear_194_53)"/><defs><linearGradient id="paint0_linear_194_53" x1=".028" y1="7.032" x2="28.066" y2="18.78" gradientUnits="userSpaceOnUse"><stop stop-color="#3455C3"/><stop offset="1" stop-color="#4280E4"/></linearGradient></defs></svg>