<svg width="190" height="28" fill="none" xmlns="http://www.w3.org/2000/svg"><g clip-path="url(#clip0_193_38)"><path d="M10.714 24.992a12.83 12.83 0 01-1.593-.157 10.975 10.975 0 01-5.49-2.643 13.93 13.93 0 01-.81-.804 10.815 10.815 0 01-2.804-6.512c-.038-.508-.04-.679-.037-2.684l.004-1.997 2.992 1.308c1.645.72 2.998 1.313 3.006 1.318.012.008.014.157.011.841-.004.906-.004.906.063 1.28a4.966 4.966 0 001.907 3.096 5.021 5.021 0 006.927-.869 4.971 4.971 0 001.016-2.259c.065-.395.068-.465.06-1.311-.007-.65-.006-.768.007-.778a1906.2 1906.2 0 015.98-2.617c.026-.01.026-.01.022 2.151-.005 2.4-.004 2.367-.08 3.013a10.841 10.841 0 01-1.617 4.53 11.028 11.028 0 01-2.595 2.829 10.979 10.979 0 01-5.572 2.206c-.275.028-.494.043-.803.056-.232.01-.341.01-.594.004zM4.274 8.445l-2.987-1.26-1.303-.549-.003-3.318L-.022 0H2.98c1.881 0 3.004.004 3.006.01.002.006 1.125.488 2.495 1.072 2.266.966 2.495 1.06 2.524 1.051C11.082 2.109 15.967.02 15.97.01 15.972.004 17.103 0 18.976 0h3.002l-.003 3.318-.003 3.319-.198.084c-.175.075-3.66 1.543-5.2 2.19-.32.135-.589.245-.597.245-.014 0-.016-.2-.016-1.387 0-.762-.004-1.39-.01-1.392-.005-.004-1.117.466-2.472 1.044a416.697 416.697 0 01-2.486 1.055c-.016.003-.892-.365-2.5-1.05a189.112 189.112 0 00-2.488-1.05c-.006.004-.01.557-.01 1.393 0 1.315-.001 1.387-.02 1.386-.01 0-.776-.32-1.701-.71z" fill="url(#paint0_linear_193_38)"/><path d="M51.288 3.993v10.59c0 1.477-.28 2.76-.842 3.852-.562 1.083-1.404 1.922-2.528 2.515-1.123.586-2.531.879-4.224.879-2.423 0-4.272-.622-5.548-1.866-1.276-1.243-1.914-3-1.914-5.27v-10.7h4.778V14.32c0 1.244.233 2.146.698 2.708.466.561 1.152.842 2.058.842.65 0 1.18-.12 1.589-.36.409-.25.706-.639.89-1.168.193-.53.29-1.212.29-2.046V3.993h4.753zm8.37 17.595h-4.706V2.862h4.706v18.726zm10.187-3.478c.425 0 .814-.044 1.168-.132.353-.089.722-.201 1.107-.337v3.43a9.552 9.552 0 01-1.637.541c-.57.145-1.3.217-2.19.217-.883 0-1.661-.137-2.335-.41-.674-.28-1.2-.762-1.577-1.444-.369-.69-.553-1.648-.553-2.876v-5.62h-1.649V9.565l2.094-1.48 1.216-2.864h3.08v2.732h3.346v3.526H68.57v5.307c0 .441.113.774.337 1 .225.216.538.324.94.324zM82.98 7.712c.258 0 .526.02.807.06.281.032.49.06.626.084l-.421 4.441a3.925 3.925 0 00-.59-.096 8.125 8.125 0 00-1.01-.048c-.298 0-.615.028-.952.084a2.704 2.704 0 00-.962.361c-.297.177-.542.45-.734.818-.193.361-.29.85-.29 1.469v6.703H74.75V7.953h3.502l.734 2.178h.229c.249-.45.566-.855.95-1.216a4.76 4.76 0 011.313-.878 3.67 3.67 0 011.504-.325zm10.248 0c1.725 0 3.073.43 4.044 1.288.97.85 1.456 2.066 1.456 3.646v8.942h-3.261l-.903-1.805h-.096a6.588 6.588 0 01-1.192 1.18 4.002 4.002 0 01-1.384.65c-.521.143-1.159.216-1.913.216-.786 0-1.492-.16-2.118-.482a3.499 3.499 0 01-1.48-1.456c-.362-.65-.542-1.472-.542-2.467 0-1.46.505-2.543 1.516-3.25 1.011-.705 2.475-1.103 4.393-1.19l2.275-.073v-.193c0-.61-.153-1.043-.458-1.3-.297-.256-.698-.384-1.203-.384-.538 0-1.14.096-1.805.288-.658.185-1.32.426-1.986.722L87.21 8.94c.786-.4 1.677-.706 2.672-.914.995-.209 2.11-.313 3.345-.313zm.819 7.786l-1.084.049c-.866.032-1.476.184-1.829.457-.345.265-.517.646-.517 1.143 0 .466.124.81.373 1.035.249.217.578.325.987.325.57 0 1.055-.18 1.456-.541.41-.361.614-.83.614-1.409v-1.059zm24.773-7.786c1.557 0 2.744.397 3.562 1.191.827.795 1.24 2.066 1.24 3.815v8.87h-4.706v-7.413c0-1.035-.14-1.754-.421-2.155-.273-.409-.682-.613-1.227-.613-.763 0-1.292.333-1.589.998-.289.666-.433 1.61-.433 2.829v6.354h-4.718v-7.413c0-.658-.06-1.188-.18-1.589-.113-.41-.285-.706-.518-.89-.233-.193-.525-.29-.878-.29-.538 0-.959.165-1.264.494-.297.321-.506.794-.626 1.42-.12.626-.18 1.392-.18 2.299v5.97h-4.706V7.952h3.55l.686 1.684h.133c.24-.369.549-.698.926-.986a4.611 4.611 0 011.36-.686c.53-.169 1.131-.253 1.805-.253 1.003 0 1.83.168 2.48.505a4.308 4.308 0 011.588 1.396h.145c.433-.61.99-1.079 1.672-1.408.682-.329 1.449-.493 2.299-.493zm12.979.241v13.635h-4.705V7.953h4.705zm-2.334-5.488c.674 0 1.259.14 1.757.421.505.28.758.838.758 1.673 0 .81-.253 1.36-.758 1.649-.498.28-1.083.42-1.757.42-.69 0-1.28-.14-1.769-.42-.482-.29-.723-.839-.723-1.65 0-.834.241-1.391.723-1.672.489-.28 1.079-.421 1.769-.421zm14.399 5.247c1.404 0 2.551.397 3.442 1.191.891.795 1.336 2.066 1.336 3.815v8.87h-4.706V14.15c0-.906-.132-1.588-.397-2.045-.257-.466-.674-.698-1.252-.698-.89 0-1.488.365-1.793 1.095-.305.722-.457 1.76-.457 3.117v5.97h-4.706V7.952h3.551l.637 1.805h.181a4.55 4.55 0 011.035-1.107 4.399 4.399 0 011.384-.698 5.916 5.916 0 011.745-.241zm12.955.241v13.635h-4.705V7.953h4.705zm-2.335-5.488c.674 0 1.26.14 1.758.421.505.28.758.838.758 1.673 0 .81-.253 1.36-.758 1.649-.498.28-1.084.42-1.758.42-.689 0-1.279-.14-1.769-.42-.481-.29-.722-.839-.722-1.65 0-.834.241-1.391.722-1.672.49-.28 1.08-.421 1.769-.421zm14.4 5.247c1.404 0 2.551.397 3.442 1.191.89.795 1.336 2.066 1.336 3.815v8.87h-4.706V14.15c0-.906-.132-1.588-.397-2.045-.257-.466-.674-.698-1.252-.698-.89 0-1.488.365-1.793 1.095-.305.722-.457 1.76-.457 3.117v5.97h-4.706V7.952h3.55l.638 1.805h.181a4.55 4.55 0 011.035-1.107 4.399 4.399 0 011.384-.698 5.916 5.916 0 011.745-.241zm12.883 19.798c-1.934 0-3.426-.326-4.477-.976-1.043-.642-1.565-1.568-1.565-2.78 0-.81.253-1.48.759-2.01.505-.529 1.263-.91 2.274-1.143a2.78 2.78 0 01-1.095-.854c-.305-.393-.457-.782-.457-1.168 0-.425.116-.798.349-1.119.232-.329.718-.718 1.456-1.167a3.667 3.667 0 01-1.673-1.468c-.401-.666-.602-1.477-.602-2.431 0-.987.225-1.83.674-2.528.458-.698 1.12-1.231 1.986-1.6.875-.37 1.938-.554 3.189-.554.169 0 .426.016.771.048.345.024.694.056 1.047.096.353.032.625.065.818.097h4.754v2.274l-1.866.686c.129.233.225.486.289.758.064.273.096.562.096.867 0 1.468-.517 2.607-1.552 3.418-1.027.81-2.564 1.215-4.609 1.215-.506 0-.907-.032-1.204-.096-.056.104-.1.209-.132.313a1.144 1.144 0 00-.036.277c0 .184.108.333.325.445.224.104.493.177.806.217.321.04.626.06.915.06h2.262c1.532 0 2.68.32 3.442.963.762.641 1.143 1.608 1.143 2.9 0 1.66-.71 2.953-2.13 3.875-1.412.923-3.398 1.384-5.957 1.384zm.229-2.937c.569 0 1.143-.053 1.721-.157.577-.096 1.063-.256 1.456-.481.393-.225.589-.522.589-.89a.704.704 0 00-.349-.639c-.232-.136-.533-.228-.902-.276a9.037 9.037 0 00-1.168-.073h-1.829c-.337 0-.646.053-.926.157-.273.112-.49.26-.65.445a.926.926 0 00-.241.626c0 .385.209.694.626.927.417.24.975.36 1.673.36zm.637-10.061c.45 0 .795-.173 1.035-.518.249-.345.374-.862.374-1.552 0-.706-.117-1.236-.35-1.589-.232-.353-.585-.53-1.059-.53-.489 0-.854.177-1.095.53-.24.345-.361.867-.361 1.565s.121 1.223.361 1.576c.241.345.606.518 1.095.518z" fill="#222B45"/></g><defs><linearGradient id="paint0_linear_193_38" x1="0" y1="5.493" x2="21.992" y2="14.761" gradientUnits="userSpaceOnUse"><stop stop-color="#3455C3"/><stop offset="1" stop-color="#4280E4"/></linearGradient><clipPath id="clip0_193_38"><path fill="#fff" d="M0 0h190v28H0z"/></clipPath></defs></svg>